<svg width="30" height="30" viewBox="0 0 30 30" fill="none" xmlns="http://www.w3.org/2000/svg">
<path d="M15.0188 16.1363L4.78299 26.2269C4.07551 26.9244 2.93151 26.9244 2.23156 26.2269L0.530607 24.5501C-0.176869 23.8527 -0.176869 22.7249 0.530607 22.0349L7.786 14.8824L0.530607 7.72997C-0.176869 7.03253 -0.176869 5.90476 0.530607 5.21474L2.22403 3.52308C2.93151 2.82564 4.07551 2.82564 4.77546 3.52308L15.0113 13.6137C15.7263 14.3111 15.7263 15.4389 15.0188 16.1363ZM29.4694 13.6137L19.2336 3.52308C18.5261 2.82564 17.3821 2.82564 16.6821 3.52308L14.9812 5.1999C14.2737 5.89734 14.2737 7.02511 14.9812 7.71513L22.2366 14.8676L14.9812 22.02C14.2737 22.7175 14.2737 23.8452 14.9812 24.5353L16.6821 26.2121C17.3896 26.9095 18.5336 26.9095 19.2336 26.2121L29.4694 16.1215C30.1769 15.4389 30.1769 14.3111 29.4694 13.6137Z" fill="#141D2B"/>
</svg>
