<?xml version="1.0" encoding="UTF-8"?>
<svg xmlns="http://www.w3.org/2000/svg" viewBox="0 0 303 93.21">
  <defs>
    <style>
      .cls-1 {
        stroke: #9fef00;
        stroke-width: .37px;
      }

      .cls-1, .cls-2, .cls-3 {
        stroke-linejoin: round;
      }

      .cls-1, .cls-3 {
        fill: none;
      }

      .cls-4 {
        fill: #fff;
        font-family: NeueHaasUnica-ExtraBold, 'Neue Haas Unica';
        font-size: 69px;
        font-weight: 700;
      }

      .cls-2 {
        fill: #111927;
      }

      .cls-2, .cls-3 {
        stroke: #000;
        stroke-width: 1.24px;
      }
    </style>
  </defs>
  <g id="Layer_2" data-name="Layer 2">
    <text class="cls-4" transform="translate(0 73.13)"><tspan x="0" y="0">BackCap</tspan></text>
  </g>
  <g id="Layer_1" data-name="Layer 1">
    <g>
      <g id="Cap">
        <path id="Cap-2" class="cls-2" d="m41.3,17.78c-.67-1.91-1.33-3.85-1.98-5.83-.69-2.09-1.35-4.16-1.98-6.2-.19-.58-.58-1.45-1.36-2.23-.25-.25-.51-.45-.74-.62-.99-.37-1.83-.66-2.48-.87-1.05-.34-1.92-.62-3.1-.87-.57-.12-1.04-.2-1.36-.25-.48-.04-1.11-.09-1.86-.12-.66-.03-1.97-.07-3.84,0-2.16.08-3.24.12-4.59.37-1.8.34-3.31.87-4.46,1.36-.91.24-2.14.68-3.47,1.49-1.37.83-2.34,1.77-2.97,2.48-.71.7-1.7,1.84-2.48,3.47-.52,1.09-.74,1.96-.99,2.97-.33,1.35-.62,3.09-.62,5.08,0,.01.08,1.17.25,3.47.1,1.45.16,2.19.37,3.1.23.96.52,1.73.74,2.23,1.74.04,3.47.08,5.21.12,2.44,2.77,4.55,4.31,6.07,5.21,1.08.63,2.09,1.34,3.34,1.91,1.13.52,2.88,1.16,5.21,1.44h1.98c1.16-.17,2.61-.5,4.21-1.12,1.59-.61,2.87-1.34,3.84-1.98,1.65-.99,3.31-1.98,4.96-2.97.83-.58,1.65-1.16,2.48-1.74.45-.37.91-.74,1.36-1.12l1.74-.62c2.23-.29,5.62-1.61,5.08-1.98-2.94-2.05-5.79-4.12-8.55-6.2Z"/>
        <path id="Bottom" class="cls-2" d="m52.33,26.73c.44.46.57.87.62,1.12.09.44.05,1.01,0,1.61,0,.1-.05.64-.12.99-.08.38-.36,1.33-1.61,2.35-.19.14-.57.4-1.12.5-.63.11-1.14-.04-1.36-.12-.7-.29-1.26-.55-1.61-.74-2.19-1.18-3.71-2.72-4.71-3.97-.18-.2-.23-.39-.25-.5-.09-.6.66-1.16,1.03-1.42,1.66-1.21,5.51-2.53,6.28-2.79.36.29.74.62,1.12.99.7.68,1.27,1.36,1.74,1.98Z"/>
        <path id="L" class="cls-3" d="m18,1.2c-.87.53-6.22,3.94-7.56,10.91-1.39,7.2,2.62,12.49,3.22,13.26"/>
        <path id="_-" data-name=" -" class="cls-3" d="m9.82,26.98c4.3-2.18,9.75-4.51,16.24-6.32,5.69-1.59,10.87-2.42,15.24-2.85"/>
      </g>
      <g id="Icons">
        <g id="Db">
          <g id="Circle">
            <path id="C" class="cls-1" d="m31.69,13.16s-.67-.94-1.74-.87c-.06,0-.86.07-1.36.74-.57.75-.57,2.02.25,2.73.92.8,2.42.52,2.97-.37.41-.66.18-1.45.12-1.61"/>
            <path id="Y" class="cls-1" d="m31.57,11.67c.06.49.12.99.18,1.48l-1.55.13"/>
          </g>
          <g id="DB">
            <path id="L1" class="cls-1" d="m21.4,13.78c.58.28,1.43.6,2.48.74,1.5.21,2.74-.04,3.47-.25"/>
            <path id="L2" class="cls-1" d="m21.15,11.45c.51.31,2.25,1.27,4.59.97,2.25-.29,3.65-1.56,4.09-1.98"/>
            <path id="L3" class="cls-1" d="m20.79,9.32c.59.32,2.43,1.23,4.83.87,2.08-.31,3.44-1.39,3.97-1.86"/>
            <path id="Body" class="cls-1" d="m30.08,11.55c-.21-1.36-.41-2.73-.62-4.09-.25-.25-.66-.6-1.24-.87-.65-.29-1.2-.34-1.74-.37-.6-.04-1.51-.03-2.6.25-.42.1-1.13.32-1.86.87-.64.48-1.02,1.01-1.24,1.36.29,2.23.58,4.46.87,6.69.02.06.06.15.12.25.13.21.47.63,1.74.87.58.11,1.08.13,1.61.12.62,0,1.47-.06,2.48-.25"/>
          </g>
        </g>
      </g>
    </g>
  </g>
</svg>