<svg width="30" height="30" viewBox="0 0 30 30" fill="none" xmlns="http://www.w3.org/2000/svg">
<path d="M21.25 17.1094V18.5156C21.25 18.9023 20.9246 19.2188 20.5268 19.2188H15.9464V23.6719C15.9464 24.0586 15.621 24.375 15.2232 24.375H13.7768C13.379 24.375 13.0536 24.0586 13.0536 23.6719V19.2188H8.47321C8.07545 19.2188 7.75 18.9023 7.75 18.5156V17.1094C7.75 16.7227 8.07545 16.4062 8.47321 16.4062H13.0536V11.9531C13.0536 11.5664 13.379 11.25 13.7768 11.25H15.2232C15.621 11.25 15.9464 11.5664 15.9464 11.9531V16.4062H20.5268C20.9246 16.4062 21.25 16.7227 21.25 17.1094ZM28 6.5625V27.1875C28 28.7402 26.7042 30 25.1071 30H3.89286C2.29576 30 1 28.7402 1 27.1875V6.5625C1 5.00977 2.29576 3.75 3.89286 3.75H6.78571V0.703125C6.78571 0.316406 7.11116 0 7.50893 0H9.91964C10.3174 0 10.6429 0.316406 10.6429 0.703125V3.75H18.3571V0.703125C18.3571 0.316406 18.6826 0 19.0804 0H21.4911C21.8888 0 22.2143 0.316406 22.2143 0.703125V3.75H25.1071C26.7042 3.75 28 5.00977 28 6.5625ZM25.1071 26.8359V9.375H3.89286V26.8359C3.89286 27.0293 4.05558 27.1875 4.25446 27.1875H24.7455C24.9444 27.1875 25.1071 27.0293 25.1071 26.8359Z" fill="#111927"/>
</svg>
