<svg width="30" height="30" viewBox="0 0 30 30" fill="none" xmlns="http://www.w3.org/2000/svg">
<path d="M22.9508 7.57582L20.9242 5.54918C20.5726 5.19755 20.0956 5 19.5984 5H12.875C11.8395 5 11 5.83945 11 6.875V8.75H7.875C6.83945 8.75 6 9.58945 6 10.625V23.125C6 24.1605 6.83945 25 7.875 25H16.625C17.6605 25 18.5 24.1605 18.5 23.125V21.25H21.625C22.6605 21.25 23.5 20.4105 23.5 19.375V8.90164C23.5 8.40436 23.3025 7.92745 22.9508 7.57582ZM16.3906 23.125H8.10938C8.04722 23.125 7.9876 23.1003 7.94365 23.0564C7.89969 23.0124 7.875 22.9528 7.875 22.8906V10.8594C7.875 10.7972 7.89969 10.7376 7.94365 10.6936C7.9876 10.6497 8.04722 10.625 8.10938 10.625H11V19.375C11 20.4105 11.8395 21.25 12.875 21.25H16.625V22.8906C16.625 22.9528 16.6003 23.0124 16.5564 23.0564C16.5124 23.1003 16.4528 23.125 16.3906 23.125ZM21.3906 19.375H13.1094C13.0472 19.375 12.9876 19.3503 12.9436 19.3064C12.8997 19.2624 12.875 19.2028 12.875 19.1406V7.10938C12.875 7.04721 12.8997 6.9876 12.9436 6.94365C12.9876 6.89969 13.0472 6.875 13.1094 6.875H17.25V10.3125C17.25 10.8303 17.6697 11.25 18.1875 11.25H21.625V19.1406C21.625 19.2028 21.6003 19.2624 21.5564 19.3064C21.5124 19.3503 21.4528 19.375 21.3906 19.375ZM21.625 9.375H19.125V6.875H19.5013C19.5634 6.875 19.623 6.89969 19.667 6.94363L21.5564 8.83301C21.5781 8.85477 21.5954 8.88061 21.6072 8.90905C21.6189 8.93749 21.625 8.96797 21.625 8.99875V9.375Z" fill="#A4B1CD"/>
</svg>
