<svg width="30" height="30" viewBox="0 0 30 30" fill="none" xmlns="http://www.w3.org/2000/svg">
<path d="M27.8333 21.6667H5.33333V5.83333C5.33333 5.37292 4.96042 5 4.5 5H2.83333C2.37292 5 2 5.37292 2 5.83333V23.3333C2 24.2536 2.74635 25 3.66667 25H27.8333C28.2937 25 28.6667 24.6271 28.6667 24.1667V22.5C28.6667 22.0396 28.2937 21.6667 27.8333 21.6667ZM26.1667 6.66667H20.0177C18.9042 6.66667 18.3464 8.01302 19.1339 8.80052L20.8214 10.488L17 14.3099L13.1786 10.4885C12.5276 9.8375 11.4724 9.8375 10.8219 10.4885L7.24427 14.0661C6.91875 14.3917 6.91875 14.9193 7.24427 15.2448L8.4224 16.4229C8.74792 16.7484 9.27552 16.7484 9.60104 16.4229L12 14.0234L15.8214 17.8448C16.4724 18.4958 17.5276 18.4958 18.1781 17.8448L23.1781 12.8448L24.8656 14.5323C25.6531 15.3198 26.9995 14.762 26.9995 13.6484V7.5C27 7.03958 26.6271 6.66667 26.1667 6.66667Z" fill="#A4B1CD"/>
</svg>
