<svg width="30" height="30" viewBox="0 0 30 30" fill="none" xmlns="http://www.w3.org/2000/svg">
<path d="M27.3125 1.87501H20.2812L19.7305 0.779307C19.6138 0.545057 19.4341 0.348012 19.2115 0.210337C18.989 0.0726631 18.7324 -0.00017742 18.4707 1.02731e-05H11.7734C11.5123 -0.000993469 11.2562 0.0715755 11.0345 0.209403C10.8127 0.34723 10.6342 0.544741 10.5195 0.779307L9.96875 1.87501H2.9375C2.68886 1.87501 2.4504 1.97378 2.27459 2.1496C2.09877 2.32541 2 2.56387 2 2.81251V4.68751C2 4.93615 2.09877 5.17461 2.27459 5.35042C2.4504 5.52624 2.68886 5.62501 2.9375 5.62501H27.3125C27.5611 5.62501 27.7996 5.52624 27.9754 5.35042C28.1512 5.17461 28.25 4.93615 28.25 4.68751V2.81251C28.25 2.56387 28.1512 2.32541 27.9754 2.1496C27.7996 1.97378 27.5611 1.87501 27.3125 1.87501ZM5.11719 27.3633C5.1619 28.0773 5.47705 28.7475 5.99847 29.2373C6.51989 29.7272 7.2084 29.9999 7.92383 30H22.3262C23.0416 29.9999 23.7301 29.7272 24.2515 29.2373C24.7729 28.7475 25.0881 28.0773 25.1328 27.3633L26.375 7.50001H3.875L5.11719 27.3633Z" fill="#A4B1CD"/>
</svg>
