<svg width="30" height="30" viewBox="0 0 30 30" fill="none" xmlns="http://www.w3.org/2000/svg">
<path d="M5.28571 13.5714C6.86161 13.5714 8.14286 12.2902 8.14286 10.7143C8.14286 9.13839 6.86161 7.85714 5.28571 7.85714C3.70982 7.85714 2.42857 9.13839 2.42857 10.7143C2.42857 12.2902 3.70982 13.5714 5.28571 13.5714ZM25.2857 13.5714C26.8616 13.5714 28.1429 12.2902 28.1429 10.7143C28.1429 9.13839 26.8616 7.85714 25.2857 7.85714C23.7098 7.85714 22.4286 9.13839 22.4286 10.7143C22.4286 12.2902 23.7098 13.5714 25.2857 13.5714ZM26.7143 15H23.8571C23.0714 15 22.3616 15.317 21.8438 15.8304C23.6429 16.817 24.9196 18.5982 25.1964 20.7143H28.1429C28.933 20.7143 29.5714 20.0759 29.5714 19.2857V17.8571C29.5714 16.2813 28.2902 15 26.7143 15ZM15.2857 15C18.0491 15 20.2857 12.7634 20.2857 10C20.2857 7.23661 18.0491 5 15.2857 5C12.5223 5 10.2857 7.23661 10.2857 10C10.2857 12.7634 12.5223 15 15.2857 15ZM18.7143 16.4286H18.3438C17.4152 16.875 16.3839 17.1429 15.2857 17.1429C14.1875 17.1429 13.1607 16.875 12.2277 16.4286H11.8571C9.01786 16.4286 6.71429 18.7321 6.71429 21.5714V22.8571C6.71429 24.0402 7.67411 25 8.85714 25H21.7143C22.8973 25 23.8571 24.0402 23.8571 22.8571V21.5714C23.8571 18.7321 21.5536 16.4286 18.7143 16.4286ZM8.72768 15.8304C8.20982 15.317 7.5 15 6.71429 15H3.85714C2.28125 15 1 16.2813 1 17.8571V19.2857C1 20.0759 1.63839 20.7143 2.42857 20.7143H5.37054C5.65179 18.5982 6.92857 16.817 8.72768 15.8304Z" fill="#A4B1CD"/>
</svg>
