<svg width="30" height="30" viewBox="0 0 30 30" fill="none" xmlns="http://www.w3.org/2000/svg">
<path d="M9.27153 5.16339C9.22144 5.1116 9.16194 5.07051 9.09641 5.04247C9.03089 5.01443 8.96064 5 8.88969 5C8.81874 5 8.74849 5.01443 8.68297 5.04247C8.61744 5.07051 8.55793 5.1116 8.50785 5.16339L5.64722 8.09421L4.6275 7.0702C4.57742 7.01842 4.51791 6.97732 4.45238 6.94929C4.38686 6.92125 4.31661 6.90681 4.24566 6.90681C4.17471 6.90681 4.10446 6.92125 4.03894 6.94929C3.97341 6.97732 3.91391 7.01842 3.86382 7.0702L3.15855 7.79793C3.1083 7.84954 3.06842 7.91087 3.04121 7.97839C3.01401 8.04592 3 8.11831 3 8.19142C3 8.26454 3.01401 8.33693 3.04121 8.40446C3.06842 8.47198 3.1083 8.53331 3.15855 8.58492L5.29638 10.7792C5.40309 10.8837 5.54469 10.942 5.69192 10.942C5.83915 10.942 5.98075 10.8837 6.08746 10.7792L6.78779 10.0561L10.0312 6.71421C10.1322 6.60999 10.1893 6.46891 10.1901 6.32157C10.1908 6.17424 10.1352 6.03255 10.0352 5.92723L9.27153 5.16339ZM9.27153 12.5328C9.22144 12.481 9.16194 12.4399 9.09641 12.4119C9.03089 12.3838 8.96064 12.3694 8.88969 12.3694C8.81874 12.3694 8.74849 12.3838 8.68297 12.4119C8.61744 12.4399 8.55793 12.481 8.50785 12.5328L5.64722 15.4826L4.6275 14.4595C4.57742 14.4077 4.51791 14.3666 4.45238 14.3386C4.38686 14.3106 4.31661 14.2961 4.24566 14.2961C4.17471 14.2961 4.10446 14.3106 4.03894 14.3386C3.97341 14.3666 3.91391 14.4077 3.86382 14.4595L3.15855 15.1859C3.1083 15.2375 3.06842 15.2988 3.04121 15.3663C3.01401 15.4338 3 15.5062 3 15.5793C3 15.6525 3.01401 15.7249 3.04121 15.7924C3.06842 15.8599 3.1083 15.9212 3.15855 15.9728L5.29099 18.1718C5.39763 18.2763 5.53915 18.3345 5.68631 18.3345C5.83346 18.3345 5.97499 18.2763 6.08162 18.1718L6.78689 17.4454L10.0303 14.1021C10.1309 13.9986 10.1878 13.8583 10.1886 13.7118C10.1893 13.5653 10.1339 13.4244 10.0343 13.3198L9.27153 12.5328ZM5.87498 20.5559C4.685 20.5559 3.69222 21.5512 3.69222 22.7779C3.69222 24.0047 4.6859 25 5.87498 25C6.44685 25 6.9953 24.7659 7.39968 24.3492C7.80406 23.9325 8.03123 23.3673 8.03123 22.7779C8.03123 22.1886 7.80406 21.6234 7.39968 21.2067C6.9953 20.79 6.44685 20.5559 5.87498 20.5559ZM25.2812 21.2965H12.3437C12.1531 21.2965 11.9703 21.3746 11.8355 21.5135C11.7007 21.6524 11.625 21.8408 11.625 22.0372V23.5186C11.625 23.7151 11.7007 23.9035 11.8355 24.0424C11.9703 24.1813 12.1531 24.2593 12.3437 24.2593H25.2812C25.4719 24.2593 25.6547 24.1813 25.7895 24.0424C25.9243 23.9035 26 23.7151 26 23.5186V22.0372C26 21.8408 25.9243 21.6524 25.7895 21.5135C25.6547 21.3746 25.4719 21.2965 25.2812 21.2965ZM25.2812 6.48274H12.3437C12.1531 6.48274 11.9703 6.56078 11.8355 6.69969C11.7007 6.83859 11.625 7.02699 11.625 7.22343V8.70482C11.625 8.90126 11.7007 9.08966 11.8355 9.22856C11.9703 9.36747 12.1531 9.44551 12.3437 9.44551H25.2812C25.4719 9.44551 25.6547 9.36747 25.7895 9.22856C25.9243 9.08966 26 8.90126 26 8.70482V7.22343C26 7.02699 25.9243 6.83859 25.7895 6.69969C25.6547 6.56078 25.4719 6.48274 25.2812 6.48274ZM25.2812 13.8896H12.3437C12.1531 13.8896 11.9703 13.9677 11.8355 14.1066C11.7007 14.2455 11.625 14.4339 11.625 14.6303V16.1117C11.625 16.3082 11.7007 16.4966 11.8355 16.6355C11.9703 16.7744 12.1531 16.8524 12.3437 16.8524H25.2812C25.4719 16.8524 25.6547 16.7744 25.7895 16.6355C25.9243 16.4966 26 16.3082 26 16.1117V14.6303C26 14.4339 25.9243 14.2455 25.7895 14.1066C25.6547 13.9677 25.4719 13.8896 25.2812 13.8896Z" fill="#A4B1CD"/>
</svg>
