<svg width="31" height="30" viewBox="0 0 31 30" fill="none" xmlns="http://www.w3.org/2000/svg">
<path d="M15.7857 8.12506C13.7176 8.12506 12.0356 9.80713 12.0356 11.8751C12.0356 12.2205 12.3153 12.5001 12.6606 12.5001C13.0059 12.5001 13.2856 12.2205 13.2856 11.8751C13.2856 10.4962 14.4075 9.37509 15.7857 9.37509C16.131 9.37509 16.4107 9.09539 16.4107 8.75007C16.4107 8.40475 16.131 8.12506 15.7857 8.12506ZM12.6629 22.9367C12.6629 23.0597 12.6993 23.1797 12.7676 23.282L13.7251 24.7211C13.8411 24.8953 14.0364 25 14.2454 25H17.3255C17.5349 25 17.7302 24.8953 17.8459 24.7211L18.8033 23.282C18.8713 23.1797 18.9076 23.0593 18.908 22.9367L18.9099 21.2499H12.6614L12.6629 22.9367ZM15.7857 5C11.7903 5 8.91052 8.24108 8.91052 11.8751C8.91052 13.6084 9.55311 15.1897 10.6121 16.3979C11.2621 17.1397 12.2817 18.6948 12.6598 19.9979V20.0003H14.5349V19.9956C14.5345 19.8093 14.5067 19.6241 14.4509 19.446C14.2325 18.7503 13.5594 16.9159 12.0223 15.1619C11.2199 14.2467 10.791 13.0857 10.7875 11.8751C10.7797 8.99852 13.1184 6.87504 15.7857 6.87504C18.5427 6.87504 20.7858 9.11805 20.7858 11.8751C20.7858 13.0849 20.3467 14.2521 19.5494 15.1619C18.0216 16.9045 17.3455 18.735 17.1236 19.4378C17.0663 19.6185 17.0371 19.8068 17.0369 19.9964V20.0003H18.9119V19.9983C19.29 18.6948 20.3096 17.1397 20.9596 16.3983C22.0182 15.1897 22.6608 13.6084 22.6608 11.8751C22.6608 8.07819 19.5826 5 15.7857 5Z" fill="#A4B1CD"/>
</svg>
