<svg width="30" height="30" viewBox="0 0 30 30" fill="none" xmlns="http://www.w3.org/2000/svg">
<path d="M23.125 8H6.875C5.83945 8 5 8.83945 5 9.875V21.125C5 22.1605 5.83945 23 6.875 23H23.125C24.1605 23 25 22.1605 25 21.125V9.875C25 8.83945 24.1605 8 23.125 8ZM23.125 9.875V11.4689C22.2491 12.1822 20.8528 13.2913 17.8677 15.6287C17.2098 16.1462 15.9067 17.3893 15 17.3748C14.0934 17.3895 12.7899 16.146 12.1323 15.6287C9.14766 13.2916 7.75098 12.1823 6.875 11.4689V9.875H23.125ZM6.875 21.125V13.8749C7.77008 14.5879 9.03941 15.5883 10.9741 17.1033C11.8279 17.7754 13.3231 19.259 15 19.25C16.6686 19.259 18.1449 17.7969 19.0255 17.1036C20.9602 15.5886 22.2299 14.5879 23.125 13.875V21.125H6.875Z" fill="#A4B1CD"/>
</svg>
