<svg width="30" height="30" viewBox="0 0 30 30" fill="none" xmlns="http://www.w3.org/2000/svg">
<path d="M26.375 21.25H16.9039C16.875 22.0238 16.3293 22.5 15.625 22.5H13.25C12.5199 22.5 11.9602 21.8176 11.9699 21.25H2.625C2.28125 21.25 2 21.5312 2 21.875V22.5C2 23.875 3.125 25 4.5 25H24.5C25.875 25 27 23.875 27 22.5V21.875C27 21.5312 26.7188 21.25 26.375 21.25ZM24.5 6.875C24.5 5.84375 23.6562 5 22.625 5H6.375C5.34375 5 4.5 5.84375 4.5 6.875V20H24.5V6.875ZM22 17.5H7V7.5H22V17.5Z" fill="#A4B1CD"/>
</svg>
