<svg width="31" height="30" viewBox="0 0 31 30" fill="none" xmlns="http://www.w3.org/2000/svg">
<path d="M21.717 7.18145C24.2573 8.99597 25.9105 11.9637 25.9105 15.3226C25.9105 20.8387 21.4428 25.3105 15.9307 25.3226C10.4267 25.3347 5.91859 20.8468 5.91053 15.3387C5.9065 11.9798 7.55972 9.00403 10.096 7.18548C10.5678 6.85081 11.225 6.99193 11.5073 7.49597L12.1444 8.62903C12.3823 9.05242 12.2694 9.58871 11.8783 9.87903C10.2049 11.121 9.13633 13.0887 9.13633 15.3185C9.1323 19.0403 12.1404 22.0968 15.9105 22.0968C19.6041 22.0968 22.7089 19.1048 22.6847 15.2782C22.6726 13.1895 21.6887 11.1734 19.9388 9.875C19.5476 9.58468 19.4388 9.04839 19.6767 8.62903L20.3138 7.49597C20.596 6.99597 21.2492 6.84677 21.717 7.18145ZM17.5234 15.6452V5.96774C17.5234 5.43145 17.092 5 16.5557 5H15.2654C14.7291 5 14.2976 5.43145 14.2976 5.96774V15.6452C14.2976 16.1814 14.7291 16.6129 15.2654 16.6129H16.5557C17.092 16.6129 17.5234 16.1814 17.5234 15.6452Z" fill="#A4B1CD"/>
</svg>
