<svg width="30" height="30" viewBox="0 0 30 30" fill="none" xmlns="http://www.w3.org/2000/svg">
<path d="M14.5 2C7.59476 2 2 7.59476 2 14.5C2 21.4052 7.59476 27 14.5 27C21.4052 27 27 21.4052 27 14.5C27 7.59476 21.4052 2 14.5 2ZM14.5 6.83871C16.9496 6.83871 18.9355 8.8246 18.9355 11.2742C18.9355 13.7238 16.9496 15.7097 14.5 15.7097C12.0504 15.7097 10.0645 13.7238 10.0645 11.2742C10.0645 8.8246 12.0504 6.83871 14.5 6.83871ZM14.5 24.1774C11.5413 24.1774 8.89012 22.8367 7.11593 20.7399C8.06351 18.9556 9.91835 17.7258 12.0806 17.7258C12.2016 17.7258 12.3226 17.746 12.4385 17.7812C13.0938 17.9929 13.7792 18.129 14.5 18.129C15.2208 18.129 15.9113 17.9929 16.5615 17.7812C16.6774 17.746 16.7984 17.7258 16.9194 17.7258C19.0817 17.7258 20.9365 18.9556 21.8841 20.7399C20.1099 22.8367 17.4587 24.1774 14.5 24.1774Z" fill="#A4B1CD"/>
</svg>
