<svg width="30" height="30" viewBox="0 0 30 30" fill="none" xmlns="http://www.w3.org/2000/svg">
<path d="M25 15C25 20.5241 20.5225 25 15 25C9.47754 25 5 20.5241 5 15C5 9.47915 9.47754 5 15 5C20.5225 5 25 9.47915 25 15ZM15.2683 8.30645C13.0709 8.30645 11.6694 9.23214 10.5688 10.8773C10.4262 11.0905 10.4739 11.3779 10.6783 11.5329L12.0774 12.5938C12.2873 12.7529 12.5863 12.7151 12.7494 12.5082C13.4697 11.5946 13.9636 11.0648 15.06 11.0648C15.8837 11.0648 16.9027 11.595 16.9027 12.3938C16.9027 12.9976 16.4042 13.3077 15.5908 13.7638C14.6423 14.2955 13.3871 14.9573 13.3871 16.6129V16.7742C13.3871 17.0414 13.6037 17.2581 13.871 17.2581H16.129C16.3962 17.2581 16.6129 17.0414 16.6129 16.7742V16.7204C16.6129 15.5728 19.9672 15.525 19.9672 12.4194C19.9672 10.0806 17.5412 8.30645 15.2683 8.30645ZM15 18.3065C13.9772 18.3065 13.1452 19.1385 13.1452 20.1613C13.1452 21.184 13.9772 22.0161 15 22.0161C16.0228 22.0161 16.8548 21.184 16.8548 20.1613C16.8548 19.1385 16.0228 18.3065 15 18.3065Z" fill="#A4B1CD"/>
</svg>
