<svg width="15" height="15" viewBox="0 0 15 15" fill="none" xmlns="http://www.w3.org/2000/svg">
<path d="M7.5 14.5C6.04485 14.5 4.62587 14.0465 3.44043 13.2025C2.25499 12.3586 1.36203 11.1662 0.885728 9.79123C0.409429 8.41623 0.373478 6.92698 0.782875 5.5306C1.19227 4.13422 2.02666 2.90014 3.17 2M7.5 0.5C8.95515 0.500026 10.3741 0.953541 11.5596 1.79747C12.745 2.64139 13.638 3.83378 14.1143 5.20877C14.5906 6.58377 14.6265 8.07302 14.2171 9.4694C13.8077 10.8658 12.9733 12.0999 11.83 13M11.5 10V13.5H15M0 1.5H3.5V5" stroke="#A4B1CD"/>
</svg>
