<svg width="30" height="30" viewBox="0 0 30 30" fill="none" xmlns="http://www.w3.org/2000/svg">
<path d="M24.7445 17.9565L22.9502 16.9203C23.1313 15.9431 23.1313 14.9406 22.9502 13.9634L24.7445 12.9272C24.9509 12.8093 25.0436 12.565 24.9762 12.3375C24.5087 10.838 23.7126 9.48173 22.6722 8.35288C22.5121 8.18019 22.251 8.13807 22.0488 8.256L20.2544 9.29218C19.5005 8.64352 18.6328 8.14228 17.6935 7.81373V5.74558C17.6935 5.50971 17.5292 5.30331 17.2975 5.25277C15.7517 4.90737 14.1679 4.92422 12.6979 5.25277C12.4662 5.30331 12.302 5.50971 12.302 5.74558V7.81794C11.3669 8.1507 10.4992 8.65194 9.74099 9.2964L7.95084 8.26022C7.74445 8.14228 7.48751 8.18019 7.32745 8.3571C6.28706 9.48173 5.49097 10.838 5.02342 12.3418C4.95182 12.5692 5.0487 12.8135 5.25509 12.9315L7.04945 13.9676C6.86833 14.9448 6.86833 15.9473 7.04945 16.9245L5.25509 17.9607C5.0487 18.0787 4.95603 18.323 5.02342 18.5504C5.49097 20.0499 6.28706 21.4062 7.32745 22.5351C7.48751 22.7078 7.74866 22.7499 7.95084 22.632L9.7452 21.5958C10.4992 22.2444 11.3669 22.7457 12.3062 23.0742V25.1466C12.3062 25.3825 12.4704 25.5889 12.7021 25.6394C14.248 25.9848 15.8317 25.9679 17.3017 25.6394C17.5334 25.5889 17.6977 25.3825 17.6977 25.1466V23.0742C18.6328 22.7415 19.5005 22.2402 20.2586 21.5958L22.053 22.632C22.2594 22.7499 22.5163 22.712 22.6764 22.5351C23.7168 21.4104 24.5129 20.0541 24.9804 18.5504C25.0436 18.3187 24.9509 18.0744 24.7445 17.9565ZM14.9977 18.8116C13.1402 18.8116 11.628 17.2994 11.628 15.4419C11.628 13.5843 13.1402 12.0722 14.9977 12.0722C16.8553 12.0722 18.3674 13.5843 18.3674 15.4419C18.3674 17.2994 16.8553 18.8116 14.9977 18.8116Z" fill="#A4B1CD"/>
</svg>
