<svg width="30" height="30" viewBox="0 0 30 30" fill="none" xmlns="http://www.w3.org/2000/svg">
<path d="M25.8502 19.5836C25.9517 19.0327 25.9517 18.4702 25.8502 17.9193L26.8581 17.3372C26.9753 17.2708 27.0261 17.1341 26.987 17.0052C26.7253 16.1613 26.276 15.3956 25.69 14.7627C25.6001 14.6651 25.4556 14.6416 25.3384 14.7081L24.3305 15.2901C23.9047 14.9268 23.4163 14.6455 22.8889 14.458V13.2938C22.8889 13.161 22.7952 13.0438 22.6662 13.0165C21.7951 12.8211 20.9082 12.8289 20.08 13.0165C19.9511 13.0438 19.8574 13.161 19.8574 13.2938V14.458C19.33 14.6455 18.8416 14.9268 18.4158 15.2901L17.4079 14.7081C17.2946 14.6416 17.1461 14.6651 17.0563 14.7627C16.4703 15.3956 16.021 16.1613 15.7593 17.0052C15.7202 17.1341 15.7749 17.2708 15.8882 17.3372L16.8961 17.9193C16.7945 18.4702 16.7945 19.0327 16.8961 19.5836L15.8882 20.1657C15.771 20.2321 15.7202 20.3688 15.7593 20.4977C16.021 21.3416 16.4703 22.1034 17.0563 22.7402C17.1461 22.8378 17.2907 22.8613 17.4079 22.7948L18.4158 22.2128C18.8416 22.5761 19.33 22.8573 19.8574 23.0449V24.2091C19.8574 24.3419 19.9511 24.4591 20.08 24.4864C20.9512 24.6818 21.838 24.6739 22.6662 24.4864C22.7952 24.4591 22.8889 24.3419 22.8889 24.2091V23.0449C23.4163 22.8573 23.9047 22.5761 24.3305 22.2128L25.3384 22.7948C25.4517 22.8613 25.6001 22.8378 25.69 22.7402C26.276 22.1073 26.7253 21.3416 26.987 20.4977C27.0261 20.3688 26.9714 20.2321 26.8581 20.1657L25.8502 19.5836ZM21.377 20.6462C20.3301 20.6462 19.4823 19.7945 19.4823 18.7514C19.4823 17.7084 20.334 16.8567 21.377 16.8567C22.4201 16.8567 23.2718 17.7084 23.2718 18.7514C23.2718 19.7945 22.424 20.6462 21.377 20.6462ZM10.7509 15.0011C13.5129 15.0011 15.7515 12.7625 15.7515 10.0005C15.7515 7.23852 13.5129 5 10.7509 5C7.98891 5 5.7504 7.23852 5.7504 10.0005C5.7504 12.7625 7.98891 15.0011 10.7509 15.0011ZM18.6111 23.8496C18.5213 23.8028 18.4314 23.7481 18.3455 23.6973L18.0368 23.877C17.8024 24.0098 17.5368 24.084 17.2711 24.084C16.8453 24.084 16.4351 23.9043 16.1421 23.5918C15.4272 22.8183 14.8803 21.8768 14.5716 20.8728C14.3568 20.1813 14.6459 19.4507 15.2709 19.0874L15.5796 18.9077C15.5757 18.8061 15.5757 18.7046 15.5796 18.603L15.2709 18.4233C14.6459 18.0639 14.3568 17.3294 14.5716 16.6379C14.6068 16.5247 14.6576 16.4114 14.6967 16.2981C14.5482 16.2863 14.4037 16.2512 14.2513 16.2512H13.5989C12.7316 16.6497 11.7667 16.8763 10.7509 16.8763C9.73519 16.8763 8.77415 16.6497 7.90297 16.2512H7.25055C4.35181 16.2512 2 18.603 2 21.5017V23.1269C2 24.1622 2.83993 25.0021 3.8752 25.0021H17.6266C18.0212 25.0021 18.3884 24.8771 18.6893 24.67C18.6424 24.5216 18.6111 24.3692 18.6111 24.2091V23.8496Z" fill="#A4B1CD"/>
</svg>
