<svg width="30" height="30" viewBox="0 0 30 30" fill="none" xmlns="http://www.w3.org/2000/svg">
<path d="M11.5161 9.37903V11.2537H13.3907V9.37903H11.5161ZM15.2654 3.75513H13.3907V5.62976H15.2654V3.75513ZM11.5161 5.62976V7.50439H13.3907V5.62976H11.5161ZM15.2654 7.50439H13.3907V9.37903H15.2654V7.50439ZM25.6696 5.74107L20.7545 0.826011C20.2273 0.29877 19.5126 0 18.7686 0H6.81195C5.25952 0.00585823 4 1.26538 4 2.81781V27.188C4 28.7405 5.25952 30 6.81195 30H23.6837C25.2361 30 26.4956 28.7405 26.4956 27.188V7.73286C26.4956 6.98887 26.1968 6.26831 25.6696 5.74107ZM18.9971 3.04628L23.4552 7.50439H18.9971V3.04628ZM23.6837 27.188H6.81195V2.81781H11.481V3.75513H13.3556V2.81781H16.1851V8.91037C16.1851 9.68951 16.812 10.3163 17.5911 10.3163H23.6837V27.188ZM15.3767 15.5712C15.3122 15.2431 15.0252 15.0029 14.6854 15.0029H13.3907V13.1283H11.5161V15.0029L10.362 20.6913C9.9754 22.5952 11.4282 24.3761 13.3732 24.3761C15.3122 24.3761 16.7651 22.6069 16.3902 20.7088L15.3767 15.5712ZM13.3907 22.8588C12.3421 22.8588 11.4927 22.15 11.4927 21.2771C11.4927 20.4042 12.3421 19.6954 13.3907 19.6954C14.4394 19.6954 15.2888 20.4042 15.2888 21.2771C15.2888 22.15 14.4394 22.8588 13.3907 22.8588ZM15.2654 11.2537H13.3907V13.1283H15.2654V11.2537Z" fill="#111927"/>
</svg>
